<?xml version="1.0" encoding="UTF-8"?>
<svg width="128" height="128" viewBox="0 0 128 128" xmlns="http://www.w3.org/2000/svg">
  <defs>
    <!-- Gradientes para efeito de explosão -->
    <radialGradient id="explosionCoreGrad" cx="0.4" cy="0.3" r="0.8">
      <stop offset="0%" stop-color="#FFFFFF" stop-opacity="1"/>
      <stop offset="20%" stop-color="#FFFF00" stop-opacity="1"/>
      <stop offset="50%" stop-color="#FF8800" stop-opacity="1"/>
      <stop offset="80%" stop-color="#FF4400" stop-opacity="1"/>
      <stop offset="100%" stop-color="#CC0000" stop-opacity="0.8"/>
    </radialGradient>
    
    <radialGradient id="fireballGrad" cx="0.3" cy="0.2" r="0.9">
      <stop offset="0%" stop-color="#FFFF88" stop-opacity="1"/>
      <stop offset="30%" stop-color="#FFAA44" stop-opacity="1"/>
      <stop offset="60%" stop-color="#FF6622" stop-opacity="0.9"/>
      <stop offset="90%" stop-color="#AA2200" stop-opacity="0.6"/>
      <stop offset="100%" stop-color="#660000" stop-opacity="0.3"/>
    </radialGradient>
    
    <radialGradient id="smokeGrad" cx="0.5" cy="0.3" r="1.0">
      <stop offset="0%" stop-color="#CCCCCC" stop-opacity="0.8"/>
      <stop offset="40%" stop-color="#888888" stop-opacity="0.6"/>
      <stop offset="70%" stop-color="#444444" stop-opacity="0.4"/>
      <stop offset="100%" stop-color="#222222" stop-opacity="0.2"/>
    </radialGradient>
    
    <radialGradient id="sparkGrad" cx="0.5" cy="0.5" r="0.8">
      <stop offset="0%" stop-color="#FFFFFF" stop-opacity="1"/>
      <stop offset="40%" stop-color="#FFFF00" stop-opacity="0.9"/>
      <stop offset="80%" stop-color="#FF8800" stop-opacity="0.6"/>
      <stop offset="100%" stop-color="#FF0000" stop-opacity="0.3"/>
    </radialGradient>
    
    <radialGradient id="shockwaveGrad" cx="0.5" cy="0.5" r="1.0">
      <stop offset="0%" stop-color="#FFFFFF" stop-opacity="0.0"/>
      <stop offset="70%" stop-color="#AAFFFF" stop-opacity="0.3"/>
      <stop offset="85%" stop-color="#FFFFFF" stop-opacity="0.8"/>
      <stop offset="100%" stop-color="#FFFFFF" stop-opacity="0.0"/>
    </radialGradient>
    
    <!-- Filtros para efeitos especiais -->
    <filter id="explosionGlow" x="-100%" y="-100%" width="300%" height="300%">
      <feGaussianBlur stdDeviation="5" result="coloredBlur"/>
      <feMerge> 
        <feMergeNode in="coloredBlur"/>
        <feMergeNode in="SourceGraphic"/>
      </feMerge>
    </filter>
    
    <filter id="fireGlow" x="-50%" y="-50%" width="200%" height="200%">
      <feGaussianBlur stdDeviation="3" result="coloredBlur"/>
      <feMerge> 
        <feMergeNode in="coloredBlur"/>
        <feMergeNode in="SourceGraphic"/>
      </feMerge>
    </filter>
    
    <filter id="sparkGlow" x="-100%" y="-100%" width="300%" height="300%">
      <feGaussianBlur stdDeviation="2" result="coloredBlur"/>
      <feMerge> 
        <feMergeNode in="coloredBlur"/>
        <feMergeNode in="SourceGraphic"/>
      </feMerge>
    </filter>
  </defs>
  
  <!-- Onda de choque externa -->
  <circle cx="64" cy="64" r="60" fill="url(#shockwaveGrad)" filter="url(#explosionGlow)"/>
  
  <!-- Fumaça de fundo -->
  <circle cx="70" cy="50" r="35" fill="url(#smokeGrad)" filter="url(#fireGlow)"/>
  <circle cx="55" cy="75" r="30" fill="url(#smokeGrad)" filter="url(#fireGlow)" opacity="0.7"/>
  <circle cx="80" cy="80" r="25" fill="url(#smokeGrad)" filter="url(#fireGlow)" opacity="0.5"/>
  
  <!-- Bolas de fogo principais -->
  <circle cx="64" cy="64" r="40" fill="url(#fireballGrad)" filter="url(#explosionGlow)"/>
  <circle cx="60" cy="60" r="30" fill="url(#fireballGrad)" filter="url(#fireGlow)" opacity="0.8"/>
  <circle cx="70" cy="70" r="25" fill="url(#fireballGrad)" filter="url(#fireGlow)" opacity="0.6"/>
  
  <!-- Núcleo super quente -->
  <circle cx="64" cy="64" r="20" fill="url(#explosionCoreGrad)" filter="url(#explosionGlow)"/>
  <circle cx="64" cy="64" r="12" fill="#FFFFFF" opacity="0.9" filter="url(#fireGlow)"/>
  <circle cx="64" cy="64" r="6" fill="#FFFFFF"/>
  
  <!-- Fragmentos e faíscas voando -->
  <circle cx="30" cy="30" r="3" fill="url(#sparkGrad)" filter="url(#sparkGlow)"/>
  <circle cx="98" cy="35" r="2.5" fill="url(#sparkGrad)" filter="url(#sparkGlow)"/>
  <circle cx="25" cy="90" r="4" fill="url(#sparkGrad)" filter="url(#sparkGlow)"/>
  <circle cx="105" cy="95" r="3.5" fill="url(#sparkGrad)" filter="url(#sparkGlow)"/>
  <circle cx="40" cy="15" r="2" fill="url(#sparkGrad)" filter="url(#sparkGlow)"/>
  <circle cx="90" cy="20" r="2.8" fill="url(#sparkGrad)" filter="url(#sparkGlow)"/>
  <circle cx="15" cy="70" r="3.2" fill="url(#sparkGrad)" filter="url(#sparkGlow)"/>
  <circle cx="110" cy="60" r="2.2" fill="url(#sparkGrad)" filter="url(#sparkGlow)"/>
  
  <!-- Rastros de faíscas -->
  <ellipse cx="35" cy="35" rx="8" ry="2" fill="#FFAA00" opacity="0.6" transform="rotate(45 35 35)"/>
  <ellipse cx="95" cy="40" rx="6" ry="1.5" fill="#FFAA00" opacity="0.6" transform="rotate(-30 95 40)"/>
  <ellipse cx="30" cy="95" rx="10" ry="2.5" fill="#FFAA00" opacity="0.6" transform="rotate(60 30 95)"/>
  <ellipse cx="100" cy="90" rx="7" ry="2" fill="#FFAA00" opacity="0.6" transform="rotate(-45 100 90)"/>
  
  <!-- Chamas irregulares -->
  <path d="M 64 24 Q 50 30 45 45 Q 55 35 64 40 Q 73 35 83 45 Q 78 30 64 24 Z" 
        fill="url(#fireballGrad)" filter="url(#fireGlow)" opacity="0.7"/>
  <path d="M 64 104 Q 78 98 83 83 Q 73 93 64 88 Q 55 93 45 83 Q 50 98 64 104 Z" 
        fill="url(#fireballGrad)" filter="url(#fireGlow)" opacity="0.7"/>
  <path d="M 24 64 Q 30 50 45 45 Q 35 55 40 64 Q 35 73 45 83 Q 30 78 24 64 Z" 
        fill="url(#fireballGrad)" filter="url(#fireGlow)" opacity="0.7"/>
  <path d="M 104 64 Q 98 78 83 83 Q 93 73 88 64 Q 93 55 83 45 Q 98 50 104 64 Z" 
        fill="url(#fireballGrad)" filter="url(#fireGlow)" opacity="0.7"/>
  
  <!-- Detalhes de energia -->
  <circle cx="50" cy="50" r="8" fill="#FFFF00" opacity="0.8" filter="url(#fireGlow)"/>
  <circle cx="78" cy="78" r="6" fill="#FFFF00" opacity="0.8" filter="url(#fireGlow)"/>
  <circle cx="50" cy="78" r="7" fill="#FFFF00" opacity="0.6" filter="url(#fireGlow)"/>
  <circle cx="78" cy="50" r="5" fill="#FFFF00" opacity="0.6" filter="url(#fireGlow)"/>
  
  <!-- Ondas de calor -->
  <ellipse cx="64" cy="64" r="45" ry="35" fill="none" stroke="#FFAA44" stroke-width="2" opacity="0.4" filter="url(#fireGlow)"/>
  <ellipse cx="64" cy="64" r="35" ry="25" fill="none" stroke="#FF6622" stroke-width="1.5" opacity="0.5" filter="url(#fireGlow)"/>
  
  <!-- Partículas menores -->
  <circle cx="45" cy="40" r="1.5" fill="#FFFFFF" filter="url(#sparkGlow)"/>
  <circle cx="85" cy="45" r="1.2" fill="#FFFFFF" filter="url(#sparkGlow)"/>
  <circle cx="40" cy="85" r="1.8" fill="#FFFFFF" filter="url(#sparkGlow)"/>
  <circle cx="88" cy="80" r="1.3" fill="#FFFFFF" filter="url(#sparkGlow)"/>
  <circle cx="75" cy="35" r="1.6" fill="#FFFFFF" filter="url(#sparkGlow)"/>
  <circle cx="35" cy="75" r="1.4" fill="#FFFFFF" filter="url(#sparkGlow)"/>
</svg>