<?xml version="1.0" encoding="UTF-8"?>
<svg width="128" height="128" viewBox="0 0 128 128" xmlns="http://www.w3.org/2000/svg">
  <defs>
    <!-- Gradientes para efeitos espaciais -->
    <radialGradient id="nebulaGrad1" cx="0.3" cy="0.2" r="0.8">
      <stop offset="0%" stop-color="#FF44AA" stop-opacity="0.6"/>
      <stop offset="40%" stop-color="#AA22FF" stop-opacity="0.4"/>
      <stop offset="70%" stop-color="#4422AA" stop-opacity="0.2"/>
      <stop offset="100%" stop-color="#221144" stop-opacity="0.1"/>
    </radialGradient>
    
    <radialGradient id="nebulaGrad2" cx="0.7" cy="0.8" r="0.9">
      <stop offset="0%" stop-color="#44AAFF" stop-opacity="0.5"/>
      <stop offset="50%" stop-color="#2266CC" stop-opacity="0.3"/>
      <stop offset="80%" stop-color="#112244" stop-opacity="0.2"/>
      <stop offset="100%" stop-color="#001122" stop-opacity="0.1"/>
    </radialGradient>
    
    <radialGradient id="starGrad1" cx="0.5" cy="0.5" r="0.8">
      <stop offset="0%" stop-color="#FFFFFF" stop-opacity="1"/>
      <stop offset="30%" stop-color="#AAFFFF" stop-opacity="1"/>
      <stop offset="70%" stop-color="#4488CC" stop-opacity="0.8"/>
      <stop offset="100%" stop-color="#224466" stop-opacity="0.4"/>
    </radialGradient>
    
    <radialGradient id="starGrad2" cx="0.5" cy="0.5" r="0.8">
      <stop offset="0%" stop-color="#FFFFFF" stop-opacity="1"/>
      <stop offset="30%" stop-color="#FFFFAA" stop-opacity="1"/>
      <stop offset="70%" stop-color="#CCAA44" stop-opacity="0.8"/>
      <stop offset="100%" stop-color="#664422" stop-opacity="0.4"/>
    </radialGradient>
    
    <radialGradient id="starGrad3" cx="0.5" cy="0.5" r="0.8">
      <stop offset="0%" stop-color="#FFFFFF" stop-opacity="1"/>
      <stop offset="30%" stop-color="#FFAAAA" stop-opacity="1"/>
      <stop offset="70%" stop-color="#CC4444" stop-opacity="0.8"/>
      <stop offset="100%" stop-color="#662222" stop-opacity="0.4"/>
    </radialGradient>
    
    <radialGradient id="bigStarGrad" cx="0.5" cy="0.5" r="1.0">
      <stop offset="0%" stop-color="#FFFFFF" stop-opacity="1"/>
      <stop offset="20%" stop-color="#AAFFFF" stop-opacity="1"/>
      <stop offset="50%" stop-color="#44AAFF" stop-opacity="0.8"/>
      <stop offset="80%" stop-color="#2266AA" stop-opacity="0.4"/>
      <stop offset="100%" stop-color="#112244" stop-opacity="0.1"/>
    </radialGradient>
    
    <!-- Filtros para brilho estelar -->
    <filter id="starGlow" x="-100%" y="-100%" width="300%" height="300%">
      <feGaussianBlur stdDeviation="2" result="coloredBlur"/>
      <feMerge> 
        <feMergeNode in="coloredBlur"/>
        <feMergeNode in="SourceGraphic"/>
      </feMerge>
    </filter>
    
    <filter id="bigStarGlow" x="-150%" y="-150%" width="400%" height="400%">
      <feGaussianBlur stdDeviation="4" result="coloredBlur"/>
      <feMerge> 
        <feMergeNode in="coloredBlur"/>
        <feMergeNode in="SourceGraphic"/>
      </feMerge>
    </filter>
    
    <filter id="nebulaGlow" x="-50%" y="-50%" width="200%" height="200%">
      <feGaussianBlur stdDeviation="6" result="coloredBlur"/>
      <feMerge> 
        <feMergeNode in="coloredBlur"/>
        <feMergeNode in="SourceGraphic"/>
      </feMerge>
    </filter>
    
    <filter id="twinkle" x="-200%" y="-200%" width="500%" height="500%">
      <feGaussianBlur stdDeviation="1" result="coloredBlur"/>
      <feMerge> 
        <feMergeNode in="coloredBlur"/>
        <feMergeNode in="SourceGraphic"/>
      </feMerge>
    </filter>
  </defs>
  
  <!-- Fundo espacial escuro -->
  <rect width="128" height="128" fill="#000011"/>
  
  <!-- Nebulosas distantes -->
  <ellipse cx="30" cy="25" rx="25" ry="15" fill="url(#nebulaGrad1)" filter="url(#nebulaGlow)" transform="rotate(30 30 25)"/>
  <ellipse cx="95" cy="100" rx="30" ry="20" fill="url(#nebulaGrad2)" filter="url(#nebulaGlow)" transform="rotate(-45 95 100)"/>
  
  <!-- Estrela principal brilhante -->
  <circle cx="20" cy="20" r="8" fill="url(#bigStarGrad)" filter="url(#bigStarGlow)"/>
  <circle cx="20" cy="20" r="4" fill="#FFFFFF" opacity="0.9"/>
  <circle cx="20" cy="20" r="2" fill="#FFFFFF"/>
  
  <!-- Raios da estrela principal -->
  <line x1="5" y1="20" x2="35" y2="20" stroke="#AAFFFF" stroke-width="1" opacity="0.6" filter="url(#starGlow)"/>
  <line x1="20" y1="5" x2="20" y2="35" stroke="#AAFFFF" stroke-width="1" opacity="0.6" filter="url(#starGlow)"/>
  <line x1="8" y1="8" x2="32" y2="32" stroke="#AAFFFF" stroke-width="0.8" opacity="0.4" filter="url(#starGlow)"/>
  <line x1="32" y1="8" x2="8" y2="32" stroke="#AAFFFF" stroke-width="0.8" opacity="0.4" filter="url(#starGlow)"/>
  
  <!-- Estrelas médias coloridas -->
  <circle cx="80" cy="30" r="4" fill="url(#starGrad2)" filter="url(#starGlow)"/>
  <circle cx="80" cy="30" r="2" fill="#FFFFFF" opacity="0.8"/>
  
  <circle cx="110" cy="70" r="3.5" fill="url(#starGrad3)" filter="url(#starGlow)"/>
  <circle cx="110" cy="70" r="1.5" fill="#FFFFFF" opacity="0.8"/>
  
  <circle cx="40" cy="90" r="4.5" fill="url(#starGrad1)" filter="url(#starGlow)"/>
  <circle cx="40" cy="90" r="2" fill="#FFFFFF" opacity="0.8"/>
  
  <!-- Estrelas pequenas distantes -->
  <circle cx="15" cy="50" r="1.5" fill="url(#starGrad1)" filter="url(#twinkle)"/>
  <circle cx="35" cy="15" r="1.2" fill="url(#starGrad2)" filter="url(#twinkle)"/>
  <circle cx="55" cy="35" r="1.8" fill="url(#starGrad3)" filter="url(#twinkle)"/>
  <circle cx="75" cy="55" r="1.3" fill="url(#starGrad1)" filter="url(#twinkle)"/>
  <circle cx="95" cy="25" r="1.6" fill="url(#starGrad2)" filter="url(#twinkle)"/>
  <circle cx="25" cy="75" r="1.4" fill="url(#starGrad3)" filter="url(#twinkle)"/>
  <circle cx="65" cy="85" r="1.7" fill="url(#starGrad1)" filter="url(#twinkle)"/>
  <circle cx="85" cy="105" r="1.1" fill="url(#starGrad2)" filter="url(#twinkle)"/>
  <circle cx="105" cy="45" r="1.5" fill="url(#starGrad3)" filter="url(#twinkle)"/>
  <circle cx="45" cy="65" r="1.2" fill="url(#starGrad1)" filter="url(#twinkle)"/>
  
  <!-- Pontos estelares muito pequenos -->
  <circle cx="30" cy="40" r="0.8" fill="#FFFFFF" opacity="0.8"/>
  <circle cx="50" cy="20" r="0.6" fill="#AAFFFF" opacity="0.7"/>
  <circle cx="70" cy="40" r="0.9" fill="#FFFFAA" opacity="0.8"/>
  <circle cx="90" cy="60" r="0.7" fill="#FFAAAA" opacity="0.7"/>
  <circle cx="10" cy="80" r="0.8" fill="#AAFFAA" opacity="0.6"/>
  <circle cx="60" cy="10" r="0.5" fill="#FFFFFF" opacity="0.9"/>
  <circle cx="100" cy="15" r="0.6" fill="#AAFFFF" opacity="0.8"/>
  <circle cx="120" cy="35" r="0.7" fill="#FFFFAA" opacity="0.7"/>
  <circle cx="15" cy="110" r="0.8" fill="#FFAAAA" opacity="0.8"/>
  <circle cx="75" cy="115" r="0.6" fill="#AAFFFF" opacity="0.7"/>
  <circle cx="115" cy="95" r="0.9" fill="#FFFFFF" opacity="0.8"/>
  <circle cx="5" cy="60" r="0.5" fill="#FFFFAA" opacity="0.6"/>
  
  <!-- Constelação conectada -->
  <line x1="80" y1="30" x2="110" y2="70" stroke="#AAFFFF" stroke-width="0.3" opacity="0.4"/>
  <line x1="110" y1="70" x2="40" y2="90" stroke="#AAFFFF" stroke-width="0.3" opacity="0.4"/>
  <line x1="40" y1="90" x2="75" y2="55" stroke="#AAFFFF" stroke-width="0.3" opacity="0.4"/>
  
  <!-- Poeira cósmica -->
  <ellipse cx="60" cy="60" rx="40" ry="8" fill="#444466" opacity="0.2" transform="rotate(25 60 60)" filter="url(#nebulaGlow)"/>
  <ellipse cx="70" cy="80" rx="25" ry="5" fill="#664444" opacity="0.15" transform="rotate(-15 70 80)" filter="url(#nebulaGlow)"/>
  
  <!-- Brilhos adicionais para estrelas principais -->
  <circle cx="20" cy="20" r="15" fill="#AAFFFF" opacity="0.1" filter="url(#bigStarGlow)"/>
  <circle cx="80" cy="30" r="10" fill="#FFFFAA" opacity="0.1" filter="url(#starGlow)"/>
  <circle cx="110" cy="70" r="8" fill="#FFAAAA" opacity="0.1" filter="url(#starGlow)"/>
  <circle cx="40" cy="90" r="12" fill="#AAFFFF" opacity="0.1" filter="url(#starGlow)"/>
</svg>